<?xml version="1.0" standalone="no"?>
<!DOCTYPE svg PUBLIC "-//W3C//DTD SVG 20010904//EN"
 "http://www.w3.org/TR/2001/REC-SVG-20010904/DTD/svg10.dtd">
<svg version="1.0" xmlns="http://www.w3.org/2000/svg"
 width="300.000000pt" height="168.000000pt" viewBox="0 0 300.000000 168.000000"
 preserveAspectRatio="xMidYMid meet">
<metadata>
Created by potrace 1.10, written by Peter Selinger 2001-2011
</metadata>
<g transform="translate(0.000000,168.000000) scale(0.100000,-0.100000)"
fill="#000000" stroke="none">
<path d="M886 1107 c3 -10 9 -15 12 -12 3 3 0 11 -7 18 -10 9 -11 8 -5 -6z"/>
<path d="M918 1109 c9 -12 6 -18 -21 -34 -18 -10 -41 -27 -51 -37 -23 -21 -41
-24 -30 -5 6 9 5 9 -8 0 -8 -7 -19 -9 -23 -5 -5 4 -5 1 -1 -6 4 -7 13 -9 19
-5 7 4 6 0 -2 -10 -7 -9 -20 -17 -28 -17 -8 0 -11 -4 -8 -10 8 -13 -1 -13 -24
-1 -13 7 -18 6 -18 -4 0 -7 6 -11 14 -8 21 8 15 -5 -8 -17 -15 -9 -24 -8 -37
2 -15 12 -16 11 -4 -4 12 -14 10 -19 -15 -35 -15 -9 -31 -22 -35 -27 -14 -20
-21 6 -28 96 -7 95 -11 81 -14 -49 -1 -68 0 -73 20 -73 17 0 105 57 124 80 3
4 25 20 50 38 25 17 68 49 95 71 28 23 53 41 57 41 4 0 -63 -68 -148 -152 -85
-83 -154 -155 -154 -160 0 -5 4 -7 9 -3 5 3 40 -14 78 -36 37 -23 79 -49 91
-56 13 -8 22 -17 19 -19 -6 -7 -181 36 -191 46 -6 6 -15 10 -21 10 -5 0 -3 -5
5 -11 12 -8 9 -9 -10 -5 -25 5 -27 3 -64 -127 -21 -73 -40 -138 -42 -146 -10
-32 -13 0 -5 45 17 91 24 234 12 234 -6 0 -11 -5 -11 -11 0 -7 -10 -9 -27 -5
-22 5 -25 4 -13 -5 12 -9 11 -10 -8 -6 -13 3 -21 3 -18 -1 4 -3 -20 -14 -53
-24 -32 -10 -61 -25 -64 -33 -5 -12 -2 -12 21 -2 15 6 29 14 32 17 6 6 25 10
61 13 15 1 24 6 21 12 -3 6 2 4 11 -4 9 -7 15 -17 12 -21 -3 -5 0 -12 6 -16 9
-5 10 1 5 19 -3 14 -2 29 4 32 6 4 10 -23 10 -75 0 -55 -3 -79 -11 -75 -6 4
-8 13 -5 21 3 8 1 14 -4 14 -8 0 -6 -88 4 -97 2 -2 0 -18 -4 -34 -6 -22 -5
-29 5 -29 14 0 50 69 61 116 13 62 47 154 56 154 5 0 6 5 2 12 -5 8 4 9 32 5
21 -4 48 -7 59 -7 17 0 17 -2 5 -10 -13 -9 -13 -10 0 -10 13 0 13 -2 0 -11
-12 -9 -11 -10 5 -4 11 4 36 9 55 11 29 4 31 3 15 -6 -16 -8 -12 -8 15 -3 19
3 43 6 52 5 10 0 20 3 23 8 8 12 -13 50 -26 50 -6 0 -3 -7 5 -16 15 -15 21
-34 11 -34 -10 0 -52 49 -46 55 3 4 -1 5 -9 4 -19 -5 -92 40 -85 51 3 5 0 12
-6 16 -8 4 -9 3 -5 -4 9 -14 -3 -15 -24 -2 -12 7 -11 12 8 28 12 11 22 24 22
31 0 6 7 11 15 11 8 0 15 4 15 8 0 12 109 122 121 122 5 0 8 3 7 8 -1 4 10 20
25 36 20 22 30 26 40 18 10 -9 13 -3 12 28 0 22 -5 43 -9 47 -5 4 -6 2 -2 -4
4 -7 3 -13 -1 -13 -5 0 -15 6 -23 13 -12 10 -12 9 -2 -4z m-171 -445 c-3 -3
-12 -4 -19 -1 -8 3 -5 6 6 6 11 1 17 -2 13 -5z"/>
<path d="M561 1032 c-11 -33 -21 -64 -21 -70 0 -6 -5 -22 -11 -36 -10 -21 -15
-23 -31 -15 -10 6 -16 15 -12 22 4 7 4 9 -1 5 -4 -4 -20 -1 -36 8 -26 13 -28
13 -23 -3 5 -15 3 -15 -11 2 -15 19 -16 19 -10 -15 3 -19 13 -41 22 -47 9 -7
13 -13 7 -14 -5 0 0 -4 11 -9 20 -9 20 -9 0 -9 -11 0 -40 4 -65 9 -25 6 -65
14 -90 19 -25 5 -55 12 -67 16 -13 4 -23 3 -23 -2 0 -5 24 -15 52 -22 120 -27
200 -41 208 -36 5 3 10 -1 13 -7 2 -7 8 -10 12 -6 4 4 -7 27 -25 53 -18 26
-30 49 -27 52 3 3 26 -9 51 -26 51 -35 61 -38 70 -15 4 11 2 15 -8 11 -10 -4
-13 -1 -9 8 3 8 10 12 16 8 6 -4 8 0 5 8 -3 8 3 48 13 88 11 41 17 76 15 78
-2 2 -13 -23 -25 -55z"/>
<path d="M1150 1036 c0 -2 7 -7 16 -10 8 -3 12 -2 9 4 -6 10 -25 14 -25 6z"/>
<path d="M725 1020 c-4 -6 1 -7 11 -3 10 4 15 2 11 -3 -3 -5 3 -10 14 -10 19
0 19 1 3 13 -21 16 -31 16 -39 3z"/>
<path d="M925 1020 c3 -5 8 -10 11 -10 2 0 4 5 4 10 0 6 -5 10 -11 10 -5 0 -7
-4 -4 -10z"/>
<path d="M1138 1003 c7 -3 16 -2 19 1 4 3 -2 6 -13 5 -11 0 -14 -3 -6 -6z"/>
<path d="M1025 972 c-18 -15 -20 -28 -17 -130 1 -85 -1 -111 -10 -106 -8 5 -9
2 -5 -9 10 -26 -22 -21 -34 6 -5 12 -22 28 -36 34 -36 17 -44 4 -40 -67 l2
-55 77 0 c67 0 80 3 102 24 17 16 26 35 26 54 0 34 8 32 15 -3 4 -20 0 -29
-33 -65 -11 -13 -11 -15 2 -15 9 0 16 7 16 15 0 17 17 20 22 4 4 -12 97 -19
104 -7 3 4 12 8 20 8 8 0 13 -3 11 -7 -3 -5 26 -9 64 -10 38 0 67 2 64 7 -8
13 28 22 39 9 8 -9 6 -10 -9 -5 -15 6 -17 4 -8 -5 17 -17 35 -2 23 21 -7 13
-7 21 0 25 5 3 11 4 11 1 1 -3 2 -9 3 -13 4 -23 24 -38 48 -38 32 -1 36 8 40
82 l3 53 37 0 c61 0 68 -7 68 -61 0 -27 5 -49 10 -49 6 0 10 28 10 65 l0 65
-76 0 -76 0 4 -67 c3 -66 2 -68 -22 -71 l-25 -3 0 151 0 150 25 0 c24 0 25 -2
23 -60 l-2 -60 75 0 74 0 0 60 c0 57 1 60 25 60 l25 0 0 -150 0 -150 -37 0
c-42 0 -37 -12 6 -15 18 -1 32 4 36 13 4 12 8 12 23 1 16 -13 16 -12 0 7 -20
23 -23 40 -8 49 6 4 10 3 9 -2 -4 -15 13 -43 26 -43 7 0 15 -5 17 -12 3 -8 32
-12 87 -13 79 0 84 1 98 25 l15 25 -21 -23 c-11 -13 -25 -20 -31 -17 -8 5 -4
12 9 21 25 18 41 74 34 119 -3 22 -2 35 5 35 7 0 10 -24 9 -62 -1 -35 2 -67 6
-73 4 -5 14 -19 21 -30 11 -15 26 -19 70 -20 45 -1 53 1 44 12 -13 17 4 17 20
1 15 -15 139 -20 165 -6 11 6 16 16 12 27 -3 12 0 18 10 18 8 0 15 -3 15 -6 2
-36 101 -68 114 -36 3 8 11 15 17 15 8 0 7 -5 -2 -17 -11 -15 -11 -16 1 -6 8
8 19 9 30 3 19 -10 90 -8 108 4 7 4 12 3 12 -1 0 -5 14 -9 30 -8 20 0 29 4 25
12 -6 17 3 16 20 -1 8 -7 24 -13 37 -12 17 1 24 8 26 29 2 15 6 27 10 27 4 0
7 28 7 62 l0 63 33 3 c20 2 32 9 32 18 0 10 5 12 13 8 9 -6 9 -5 0 8 -7 8 -10
18 -6 22 15 14 -20 23 -81 21 -72 -3 -86 -8 -86 -36 0 -10 -5 -19 -11 -19 -6
0 -8 7 -5 17 4 10 4 14 0 10 -4 -4 -12 0 -18 8 -6 9 -35 18 -64 22 -45 5 -58
3 -82 -16 -35 -25 -38 -26 -36 -4 0 10 -5 18 -11 19 -7 1 -19 2 -26 3 -19 2
-17 31 2 31 9 0 3 7 -13 15 -34 18 -58 19 -74 3 -6 -6 -31 -11 -56 -12 -42 -1
-43 -15 -1 -16 11 0 29 -8 40 -16 14 -11 15 -15 5 -13 -8 1 -23 -1 -33 -6 -9
-4 -23 -3 -30 3 -7 6 -39 9 -71 8 -44 -2 -62 -7 -72 -21 -11 -14 -14 -15 -14
-4 0 8 -10 23 -22 33 -18 15 -20 16 -15 2 4 -9 2 -16 -3 -16 -13 0 -13 33 0
46 7 7 7 11 -2 12 -7 1 -25 4 -39 7 -29 8 -62 -17 -53 -39 7 -18 -28 -30 -58
-21 -21 6 -21 6 -5 -6 9 -8 22 -39 29 -71 22 -104 -18 -168 -104 -168 -100 0
-144 139 -66 205 26 22 39 26 80 23 41 -2 46 -1 31 10 -41 30 -126 3 -154 -49
l-19 -34 2 38 c1 20 7 37 12 37 6 0 5 5 -2 12 -18 18 -15 26 11 31 21 4 21 4
1 6 -13 0 -24 10 -27 21 -6 23 -48 28 -65 7 -6 -7 -12 -35 -14 -62 l-3 -50
-55 -2 c-44 -1 -49 0 -25 7 l30 8 -27 1 c-27 1 -28 3 -28 50 0 41 -4 51 -20
56 -11 3 -29 3 -40 0 -17 -5 -20 -16 -21 -63 -1 -31 -1 -66 0 -77 0 -14 -1
-16 -6 -5 -11 29 -57 70 -77 70 -18 0 -19 2 -6 11 11 8 8 9 -15 5 -40 -8 -64
7 -46 28 10 11 10 16 2 16 -19 0 -24 -29 -10 -47 8 -9 9 -14 3 -10 -7 4 -23
-2 -35 -13 -20 -16 -21 -19 -7 -20 9 0 20 5 23 10 8 13 68 13 98 -1 53 -24 74
-112 40 -169 -49 -84 -182 -58 -198 39 -4 25 -1 51 9 76 19 45 19 40 1 59 -9
8 -22 13 -30 10 -12 -5 -15 -29 -15 -120 l0 -114 -25 0 -25 0 -2 118 c-1 64
-3 92 -5 62 -6 -79 -19 -82 -18 -5 0 43 4 65 12 65 6 0 14 -4 18 -10 8 -13 36
-1 58 24 10 12 15 14 11 6 -6 -12 -5 -13 7 -2 12 11 12 14 0 21 -11 7 -10 10
5 14 19 5 19 5 0 6 -10 0 -24 9 -31 18 -11 14 -16 15 -44 3 -25 -10 -38 -10
-57 -1 -30 13 -25 14 -49 -7z m144 -20 c11 -20 -3 -42 -26 -42 -19 0 -34 35
-21 48 17 17 36 15 47 -6z m-91 -117 c-3 -114 -6 -126 -28 -150 -33 -35 -100
-35 -135 0 -33 33 -33 65 0 65 18 0 25 -5 25 -19 0 -39 60 -52 82 -17 4 6 8
64 8 129 l0 117 26 0 26 0 -4 -125z m964 79 c-4 -36 -4 -36 27 -29 27 6 31 4
31 -14 0 -17 -6 -21 -30 -21 l-31 0 3 -72 c3 -69 4 -73 28 -78 38 -8 36 -40
-3 -40 -53 0 -67 23 -67 112 0 76 -1 78 -24 78 -17 0 -23 5 -21 18 1 11 10 16
24 15 18 -2 21 2 21 32 0 30 3 35 23 35 21 0 23 -4 19 -36z m358 2 c0 -30 2
-33 25 -28 20 3 25 0 25 -17 0 -16 -6 -21 -25 -21 -26 0 -26 -1 -23 -72 3 -68
4 -73 26 -72 17 0 22 -5 22 -23 0 -20 -5 -23 -34 -23 -51 0 -66 28 -66 117 0
66 -2 73 -20 73 -11 0 -20 7 -20 16 0 9 -5 12 -12 8 -7 -5 -8 -3 -3 5 4 8 17
10 31 7 22 -6 24 -3 24 29 0 31 3 35 25 35 22 0 25 -4 25 -34z m-60 14 c0 -5
-7 -7 -15 -4 -8 4 -15 8 -15 10 0 2 7 4 15 4 8 0 15 -4 15 -10z m-1130 -66 c0
-8 -4 -14 -10 -14 -5 0 -10 9 -10 21 0 11 5 17 10 14 6 -3 10 -13 10 -21z
m1050 16 c10 -5 23 -24 30 -42 7 -18 14 -27 17 -20 11 29 20 8 20 -50 1 -35
-1 -52 -4 -38 -3 14 -14 35 -24 46 -11 12 -19 28 -17 35 2 8 -4 14 -12 14 -8
0 -21 8 -28 18 -16 21 -55 22 -72 2 -18 -22 2 -42 52 -50 73 -13 102 -72 56
-115 -18 -17 -33 -20 -77 -18 -47 3 -57 7 -79 36 l-25 32 32 0 c20 0 31 -5 31
-14 0 -28 59 -35 85 -10 22 23 5 40 -59 58 -36 11 -56 23 -63 38 -12 27 -1 62
24 77 23 13 89 14 113 1z m375 -15 c23 -22 25 -32 25 -115 0 -83 -1 -90 -20
-90 -14 0 -20 7 -20 22 l0 22 -20 -22 c-31 -33 -92 -30 -119 5 -40 49 -2 103
78 111 39 3 51 8 51 21 0 42 -46 53 -87 21 -49 -39 -72 -18 -28 25 18 19 35
25 70 25 35 0 52 -6 70 -25z m112 5 c-3 -11 -2 -20 2 -20 3 0 12 9 19 20 7 11
23 20 37 20 20 0 25 -5 25 -24 0 -19 -4 -23 -20 -19 -12 3 -29 -2 -40 -12 -17
-15 -20 -31 -20 -97 0 -77 0 -78 -25 -78 l-25 0 0 108 c0 60 3 112 7 115 3 4
15 7 26 7 14 0 18 -5 14 -20z m-649 -44 c-1 -6 4 -22 11 -36 9 -20 28 -31 73
-44 43 -13 57 -21 47 -27 -23 -14 -43 -10 -57 11 -7 11 -19 20 -27 20 -23 0
-65 -22 -59 -31 3 -5 -2 -6 -10 -3 -11 4 -16 19 -15 48 0 32 2 37 9 21 7 -16
9 -17 9 -3 1 9 -3 19 -9 23 -5 3 -7 11 -4 19 6 15 35 17 32 2z m130 3 c-2 -6
-7 -10 -11 -10 -4 1 -14 1 -23 1 -23 0 -9 15 16 17 12 1 20 -3 18 -8z m237 -9
c4 -11 11 -18 16 -15 16 10 10 -4 -11 -25 -11 -11 -20 -29 -20 -40 0 -11 -4
-20 -10 -20 -5 0 -13 -1 -17 -2 -5 -2 -9 23 -9 54 -2 56 0 60 38 67 4 0 10 -8
13 -19z m125 10 c0 -11 -2 -12 -42 -14 -21 -2 -25 1 -16 11 12 15 58 18 58 3z
m95 -69 c1 -44 -2 -78 -6 -76 -13 9 -10 155 4 155 1 0 2 -36 2 -79z m-1475
-105 c-7 -7 -14 -6 -22 2 -9 9 -9 12 -1 12 8 0 9 10 2 32 -13 47 -11 48 11 4
14 -27 17 -43 10 -50z m227 62 c-3 -8 -6 -5 -6 6 -1 11 2 17 5 13 3 -3 4 -12
1 -19z m863 -58 c-24 -15 -36 -11 -14 4 10 8 21 12 24 10 2 -3 -2 -9 -10 -14z"/>
<path d="M2533 760 c-41 -16 -23 -70 22 -70 27 0 55 30 55 58 0 17 -6 22 -27
21 -16 0 -38 -4 -50 -9z m55 -29 c-4 -20 -49 -22 -56 -2 -3 9 2 11 19 7 13 -3
18 -3 12 0 -21 9 -15 23 7 17 13 -3 20 -12 18 -22z"/>
<path d="M2425 800 c-3 -5 -1 -10 4 -10 6 0 11 5 11 10 0 6 -2 10 -4 10 -3 0
-8 -4 -11 -10z"/>
<path d="M2432 764 c-7 -8 -10 -19 -6 -26 5 -7 10 -3 16 12 10 28 7 33 -10 14z"/>
<path d="M1805 950 c-3 -5 -1 -10 4 -10 6 0 11 5 11 10 0 6 -2 10 -4 10 -3 0
-8 -4 -11 -10z"/>
<path d="M2800 940 c0 -11 4 -20 9 -20 5 0 7 9 4 20 -3 11 -7 20 -9 20 -2 0
-4 -9 -4 -20z"/>
<path d="M501 934 c0 -11 3 -14 6 -6 3 7 2 16 -1 19 -3 4 -6 -2 -5 -13z"/>
<path d="M2703 940 c-13 -5 -23 -12 -23 -15 0 -9 16 -5 36 10 22 16 19 18 -13
5z"/>
<path d="M2165 930 c-3 -5 1 -10 10 -10 9 0 13 5 10 10 -3 6 -8 10 -10 10 -2
0 -7 -4 -10 -10z"/>
<path d="M2215 930 c-3 -5 -1 -10 4 -10 6 0 11 5 11 10 0 6 -2 10 -4 10 -3 0
-8 -4 -11 -10z"/>
<path d="M2475 930 c-3 -5 1 -10 9 -10 9 0 16 5 16 10 0 6 -4 10 -9 10 -6 0
-13 -4 -16 -10z"/>
<path d="M2590 930 c0 -7 8 -9 21 -5 13 5 25 2 31 -6 8 -11 9 -11 5 1 -4 18
-57 27 -57 10z"/>
<path d="M2753 933 c9 -2 23 -2 30 0 6 3 -1 5 -18 5 -16 0 -22 -2 -12 -5z"/>
<path d="M1765 920 c-3 -6 1 -7 9 -4 18 7 21 14 7 14 -6 0 -13 -4 -16 -10z"/>
<path d="M1828 923 c7 -3 16 -2 19 1 4 3 -2 6 -13 5 -11 0 -14 -3 -6 -6z"/>
<path d="M1938 923 c7 -3 16 -2 19 1 4 3 -2 6 -13 5 -11 0 -14 -3 -6 -6z"/>
<path d="M2115 920 c-3 -5 -1 -10 4 -10 6 0 11 5 11 10 0 6 -2 10 -4 10 -3 0
-8 -4 -11 -10z"/>
<path d="M2528 923 c6 -2 18 -2 25 0 6 3 1 5 -13 5 -14 0 -19 -2 -12 -5z"/>
<path d="M850 900 c0 -5 5 -10 11 -10 5 0 7 5 4 10 -3 6 -8 10 -11 10 -2 0 -4
-4 -4 -10z"/>
<path d="M170 875 c6 -7 7 -15 3 -17 -4 -3 -2 -3 6 -1 8 2 21 -3 30 -10 9 -8
23 -14 32 -14 9 0 34 -8 55 -17 125 -58 153 -73 147 -79 -3 -4 -12 -2 -19 4
-16 13 -36 3 -32 -16 2 -8 0 -14 -4 -14 -23 -2 -29 0 -23 9 4 6 -1 7 -11 3
-15 -5 -15 -7 0 -15 9 -5 14 -14 10 -19 -3 -6 -12 -5 -22 3 -10 8 -13 9 -9 1
4 -6 0 -18 -8 -26 -19 -19 -21 -43 -2 -27 6 6 43 32 81 58 73 49 90 79 58 103
-14 11 -15 11 -4 -1 28 -32 3 -40 -45 -15 -56 29 -253 102 -243 90z m250 -139
c0 -3 -4 -8 -10 -11 -5 -3 -10 -1 -10 4 0 6 5 11 10 11 6 0 10 -2 10 -4z"/>
<path d="M1293 849 c-48 -18 -58 -95 -18 -135 19 -18 31 -23 48 -19 36 11 48
29 49 72 1 68 -30 100 -79 82z m37 -18 c0 -5 -6 -12 -12 -15 -7 -2 -2 -4 12
-3 23 2 24 -1 21 -33 -6 -64 -33 -89 -61 -55 -18 22 -21 95 -4 95 8 0 14 5 14
10 0 6 7 10 15 10 8 0 15 -4 15 -9z"/>
<path d="M1819 853 c-33 -8 -50 -84 -28 -124 20 -39 77 -41 101 -5 12 17 9 86
-3 86 -5 0 -7 -5 -4 -10 8 -13 -4 -52 -14 -46 -4 3 -7 -4 -7 -16 1 -23 -30
-33 -51 -16 -17 14 -18 82 0 72 8 -5 8 -3 -2 9 -14 18 -6 25 33 31 8 1 18 5
21 8 8 7 -26 15 -46 11z"/>
<path d="M791 824 c0 -11 3 -14 6 -6 3 7 2 16 -1 19 -3 4 -6 -2 -5 -13z"/>
<path d="M558 823 c7 -3 16 -2 19 1 4 3 -2 6 -13 5 -11 0 -14 -3 -6 -6z"/>
<path d="M1826 805 c10 -6 14 -16 11 -22 -3 -5 0 -10 8 -10 8 0 15 5 15 11 0
6 5 4 11 -4 9 -13 10 -13 6 0 -2 8 -10 14 -17 12 -7 -2 -10 3 -7 11 4 10 -2
15 -19 15 -22 0 -23 -2 -8 -13z"/>
<path d="M780 780 c-10 -6 -11 -10 -2 -10 6 0 12 -5 12 -11 0 -6 -7 -8 -17 -4
-14 5 -15 3 -6 -6 15 -15 32 -4 30 21 -1 11 -1 20 -2 20 0 0 -7 -5 -15 -10z"/>
<path d="M961 764 c0 -11 3 -14 6 -6 3 7 2 16 -1 19 -3 4 -6 -2 -5 -13z"/>
<path d="M1588 761 c8 -4 13 -12 12 -17 -1 -5 4 -10 12 -12 9 -2 8 0 -2 7 -13
10 -13 11 0 11 13 0 13 1 0 10 -8 5 -19 10 -25 10 -5 0 -4 -4 3 -9z"/>
<path d="M1827 743 c-12 -12 -7 -22 8 -17 8 4 15 10 15 15 0 11 -14 12 -23 2z"/>
<path d="M2791 734 c0 -11 3 -14 6 -6 3 7 2 16 -1 19 -3 4 -6 -2 -5 -13z"/>
<path d="M1972 654 c-7 -8 -8 -14 -3 -14 10 0 25 19 20 25 -2 1 -10 -3 -17
-11z"/>
<path d="M2326 653 c-6 -14 -5 -15 5 -6 7 7 10 15 7 18 -3 3 -9 -2 -12 -12z"/>
<path d="M480 596 c0 -8 4 -17 9 -20 5 -4 7 3 4 14 -6 23 -13 26 -13 6z"/>
<path d="M551 424 c0 -11 3 -14 6 -6 3 7 2 16 -1 19 -3 4 -6 -2 -5 -13z"/>
</g>
</svg>
